<svg xmlns="http://www.w3.org/2000/svg" xmlns:xlink="http://www.w3.org/1999/xlink" width="500" zoomAndPan="magnify" viewBox="0 0 375 374.999991" height="500" preserveAspectRatio="xMidYMid meet" version="1.0"><defs><clipPath id="40e5a430f5"><path d="M 11.320312 195 L 363.820312 195 L 363.820312 360 L 11.320312 360 Z M 11.320312 195 " clip-rule="nonzero"/></clipPath></defs><g clip-path="url(#40e5a430f5)"><path fill="#959aa4" d="M 249.859375 195.570312 C 231.320312 210.152344 207.972656 218.878906 182.605469 218.878906 C 157.867188 218.878906 135.03125 210.585938 116.722656 196.648438 C 56.964844 206.300781 11.320312 258.074219 11.320312 320.523438 C 11.320312 389.84375 67.546875 344.777344 136.90625 344.777344 L 238.222656 344.777344 C 307.589844 344.777344 363.820312 389.84375 363.820312 320.523438 C 363.820312 255.132812 313.765625 201.4375 249.859375 195.570312 Z M 249.859375 195.570312 " fill-opacity="1" fill-rule="nonzero"/></g><path fill="#959aa4" d="M 182.605469 204.273438 C 234.636719 204.273438 276.964844 161.964844 276.964844 109.960938 C 276.964844 57.960938 234.636719 15.65625 182.605469 15.65625 C 130.570312 15.65625 88.238281 57.960938 88.238281 109.960938 C 88.242188 161.964844 130.574219 204.273438 182.605469 204.273438 Z M 182.605469 204.273438 " fill-opacity="1" fill-rule="nonzero"/></svg>