<svg xmlns="http://www.w3.org/2000/svg" xmlns:xlink="http://www.w3.org/1999/xlink" width="500" zoomAndPan="magnify" viewBox="0 0 375 374.999991" height="500" preserveAspectRatio="xMidYMid meet" version="1.0"><defs><clipPath id="e11d3ac558"><path d="M 11.320312 192 L 363.820312 192 L 363.820312 357 L 11.320312 357 Z M 11.320312 192 " clip-rule="nonzero"/></clipPath><clipPath id="de01b2484c"><path d="M 88 12.265625 L 277 12.265625 L 277 202 L 88 202 Z M 88 12.265625 " clip-rule="nonzero"/></clipPath></defs><g clip-path="url(#e11d3ac558)"><path fill="#882a9b" d="M 249.859375 192.835938 C 231.320312 207.417969 207.972656 216.144531 182.605469 216.144531 C 157.867188 216.144531 135.03125 207.851562 116.722656 193.914062 C 56.964844 203.566406 11.320312 255.34375 11.320312 317.789062 C 11.320312 387.113281 67.546875 342.042969 136.90625 342.042969 L 238.222656 342.042969 C 307.589844 342.042969 363.820312 387.113281 363.820312 317.789062 C 363.820312 252.398438 313.765625 198.703125 249.859375 192.835938 Z M 249.859375 192.835938 " fill-opacity="1" fill-rule="nonzero"/></g><g clip-path="url(#de01b2484c)"><path fill="#882a9b" d="M 182.605469 201.539062 C 234.636719 201.539062 276.964844 159.230469 276.964844 107.226562 C 276.964844 55.230469 234.636719 12.921875 182.605469 12.921875 C 130.570312 12.921875 88.238281 55.230469 88.238281 107.226562 C 88.242188 159.230469 130.574219 201.539062 182.605469 201.539062 Z M 182.605469 201.539062 " fill-opacity="1" fill-rule="nonzero"/></g></svg>