<svg xmlns="http://www.w3.org/2000/svg" xmlns:xlink="http://www.w3.org/1999/xlink" width="500" zoomAndPan="magnify" viewBox="0 0 375 374.999991" height="500" preserveAspectRatio="xMidYMid meet" version="1.0"><defs><clipPath id="f07cceab31"><path d="M 24.789062 24.707031 L 350.207031 24.707031 L 350.207031 350.207031 L 24.789062 350.207031 Z M 24.789062 24.707031 " clip-rule="nonzero"/></clipPath></defs><g clip-path="url(#f07cceab31)"><path fill="#882a9b" d="M 187.539062 350.207031 C 231.011719 350.207031 271.882812 333.277344 302.621094 302.539062 C 333.359375 271.800781 350.289062 230.929688 350.289062 187.457031 C 350.289062 143.984375 333.359375 103.117188 302.621094 72.375 C 271.882812 41.636719 231.011719 24.707031 187.539062 24.707031 C 144.070312 24.707031 103.199219 41.636719 72.460938 72.375 C 41.71875 103.117188 24.792969 143.984375 24.792969 187.457031 C 24.792969 211.667969 31.578125 234.125 31.890625 235.144531 C 34.601562 244.015625 38.097656 252.703125 42.289062 260.992188 L 26.339844 341.628906 C 26.023438 343.21875 26.515625 344.863281 27.648438 346.019531 C 28.78125 347.179688 30.414062 347.703125 32.011719 347.425781 L 114.59375 332.949219 C 123.328125 337.347656 132.496094 340.960938 141.867188 343.703125 C 142.789062 343.96875 164.46875 350.207031 187.539062 350.207031 Z M 187.539062 350.207031 " fill-opacity="1" fill-rule="nonzero"/></g></svg>