<svg xmlns="http://www.w3.org/2000/svg" xmlns:xlink="http://www.w3.org/1999/xlink" width="500" zoomAndPan="magnify" viewBox="0 0 375 374.999991" height="500" preserveAspectRatio="xMidYMid meet" version="1.0"><defs><clipPath id="909471dd6a"><path d="M 24.789062 17.875 L 350.207031 17.875 L 350.207031 343.375 L 24.789062 343.375 Z M 24.789062 17.875 " clip-rule="nonzero"/></clipPath></defs><g clip-path="url(#909471dd6a)"><path fill="#959aa4" d="M 187.539062 343.371094 C 231.011719 343.371094 271.882812 326.445312 302.621094 295.703125 C 333.359375 264.964844 350.289062 224.09375 350.289062 180.625 C 350.289062 137.152344 333.359375 96.28125 302.621094 65.542969 C 271.882812 34.800781 231.011719 17.875 187.539062 17.875 C 144.070312 17.875 103.199219 34.800781 72.460938 65.542969 C 41.71875 96.28125 24.792969 137.152344 24.792969 180.625 C 24.792969 204.835938 31.578125 227.289062 31.890625 228.308594 C 34.601562 237.179688 38.097656 245.867188 42.289062 254.15625 L 26.339844 334.792969 C 26.023438 336.382812 26.515625 338.027344 27.648438 339.1875 C 28.78125 340.34375 30.414062 340.871094 32.011719 340.589844 L 114.59375 326.117188 C 123.328125 330.511719 132.496094 334.128906 141.867188 336.867188 C 142.789062 337.136719 164.46875 343.371094 187.539062 343.371094 Z M 187.539062 343.371094 " fill-opacity="1" fill-rule="nonzero"/></g></svg>