<svg xmlns="http://www.w3.org/2000/svg" xmlns:xlink="http://www.w3.org/1999/xlink" width="500" zoomAndPan="magnify" viewBox="0 0 375 374.999991" height="500" preserveAspectRatio="xMidYMid meet" version="1.0"><defs><clipPath id="e07d22ed65"><path d="M 18.359375 12.660156 L 356.609375 12.660156 L 356.609375 350.910156 L 18.359375 350.910156 Z M 18.359375 12.660156 " clip-rule="nonzero"/></clipPath><clipPath id="c05882a2a7"><path d="M 80 95 L 295 95 L 295 303 L 80 303 Z M 80 95 " clip-rule="nonzero"/></clipPath><clipPath id="18afb21214"><path d="M 88.765625 128.757812 C 71.378906 160.296875 83.628906 190.992188 99.023438 207.285156 L 189.042969 302.359375 L 277.160156 207.625 C 291.480469 190.097656 296.96875 171.507812 293.921875 150.808594 C 289.710938 122.171875 268.273438 99.953125 241.792969 96.78125 C 225.554688 94.941406 209.863281 99.917969 197.621094 111.117188 C 194.324219 114.132812 191.378906 117.5 188.8125 121.164062 C 185.765625 116.992188 182.191406 113.179688 178.152344 109.796875 C 164.074219 98.019531 146.148438 93.5625 128.933594 96.976562 C 112.625 100.445312 97.988281 112.023438 88.765625 128.757812 " clip-rule="nonzero"/></clipPath></defs><g clip-path="url(#e07d22ed65)"><path fill="#882a9b" d="M 356.609375 181.785156 C 356.609375 184.550781 356.539062 187.316406 356.40625 190.082031 C 356.269531 192.847656 356.066406 195.605469 355.792969 198.359375 C 355.523438 201.117188 355.183594 203.863281 354.777344 206.601562 C 354.371094 209.335938 353.898438 212.0625 353.359375 214.777344 C 352.820312 217.492188 352.210938 220.191406 351.539062 222.878906 C 350.867188 225.5625 350.128906 228.230469 349.324219 230.878906 C 348.523438 233.527344 347.65625 236.15625 346.722656 238.761719 C 345.789062 241.367188 344.792969 243.949219 343.734375 246.503906 C 342.675781 249.0625 341.554688 251.59375 340.371094 254.09375 C 339.1875 256.597656 337.941406 259.066406 336.636719 261.507812 C 335.332031 263.949219 333.96875 266.359375 332.546875 268.730469 C 331.125 271.105469 329.644531 273.445312 328.105469 275.746094 C 326.566406 278.046875 324.972656 280.308594 323.324219 282.53125 C 321.675781 284.753906 319.976562 286.9375 318.21875 289.074219 C 316.460938 291.214844 314.65625 293.3125 312.796875 295.363281 C 310.9375 297.414062 309.03125 299.417969 307.074219 301.375 C 305.117188 303.332031 303.113281 305.238281 301.0625 307.097656 C 299.011719 308.957031 296.914062 310.761719 294.773438 312.519531 C 292.636719 314.273438 290.453125 315.976562 288.230469 317.625 C 286.007812 319.273438 283.746094 320.867188 281.445312 322.40625 C 279.144531 323.945312 276.804688 325.425781 274.429688 326.847656 C 272.058594 328.269531 269.648438 329.632812 267.207031 330.9375 C 264.765625 332.242188 262.296875 333.488281 259.792969 334.671875 C 257.292969 335.855469 254.761719 336.976562 252.203125 338.035156 C 249.648438 339.09375 247.066406 340.089844 244.460938 341.023438 C 241.855469 341.957031 239.226562 342.824219 236.578125 343.625 C 233.929688 344.429688 231.261719 345.167969 228.578125 345.839844 C 225.890625 346.511719 223.191406 347.121094 220.476562 347.660156 C 217.761719 348.199219 215.035156 348.671875 212.300781 349.078125 C 209.5625 349.484375 206.816406 349.824219 204.058594 350.09375 C 201.304688 350.367188 198.546875 350.570312 195.78125 350.707031 C 193.015625 350.839844 190.25 350.910156 187.484375 350.910156 C 184.714844 350.910156 181.949219 350.839844 179.183594 350.707031 C 176.421875 350.570312 173.660156 350.367188 170.90625 350.09375 C 168.152344 349.824219 165.40625 349.484375 162.667969 349.078125 C 159.929688 348.671875 157.203125 348.199219 154.488281 347.660156 C 151.773438 347.121094 149.074219 346.511719 146.390625 345.839844 C 143.703125 345.167969 141.039062 344.429688 138.390625 343.625 C 135.738281 342.824219 133.113281 341.957031 130.507812 341.023438 C 127.902344 340.089844 125.320312 339.09375 122.761719 338.035156 C 120.203125 336.976562 117.675781 335.855469 115.171875 334.671875 C 112.671875 333.488281 110.199219 332.242188 107.757812 330.9375 C 105.316406 329.632812 102.910156 328.269531 100.535156 326.847656 C 98.160156 325.425781 95.824219 323.945312 93.523438 322.40625 C 91.222656 320.867188 88.957031 319.273438 86.734375 317.625 C 84.511719 315.976562 82.332031 314.273438 80.191406 312.519531 C 78.050781 310.761719 75.957031 308.957031 73.90625 307.097656 C 71.855469 305.238281 69.851562 303.332031 67.894531 301.375 C 65.9375 299.417969 64.027344 297.414062 62.171875 295.363281 C 60.3125 293.3125 58.503906 291.214844 56.746094 289.074219 C 54.992188 286.9375 53.289062 284.753906 51.640625 282.53125 C 49.992188 280.308594 48.398438 278.046875 46.859375 275.746094 C 45.324219 273.445312 43.84375 271.105469 42.421875 268.730469 C 40.996094 266.359375 39.632812 263.949219 38.328125 261.507812 C 37.023438 259.066406 35.78125 256.597656 34.597656 254.09375 C 33.414062 251.59375 32.292969 249.0625 31.230469 246.503906 C 30.171875 243.949219 29.175781 241.367188 28.246094 238.761719 C 27.3125 236.15625 26.445312 233.527344 25.640625 230.878906 C 24.835938 228.230469 24.097656 225.5625 23.425781 222.878906 C 22.753906 220.191406 22.148438 217.492188 21.609375 214.777344 C 21.066406 212.0625 20.59375 209.335938 20.1875 206.601562 C 19.78125 203.863281 19.445312 201.117188 19.171875 198.359375 C 18.902344 195.605469 18.699219 192.847656 18.5625 190.082031 C 18.425781 187.316406 18.359375 184.550781 18.359375 181.785156 C 18.359375 179.015625 18.425781 176.25 18.5625 173.484375 C 18.699219 170.722656 18.902344 167.960938 19.171875 165.207031 C 19.445312 162.453125 19.78125 159.707031 20.1875 156.96875 C 20.59375 154.230469 21.066406 151.503906 21.609375 148.789062 C 22.148438 146.074219 22.753906 143.375 23.425781 140.691406 C 24.097656 138.003906 24.835938 135.339844 25.640625 132.691406 C 26.445312 130.042969 27.3125 127.414062 28.246094 124.808594 C 29.175781 122.203125 30.171875 119.621094 31.230469 117.0625 C 32.292969 114.503906 33.414062 111.976562 34.597656 109.472656 C 35.78125 106.972656 37.023438 104.5 38.328125 102.058594 C 39.632812 99.617188 40.996094 97.210938 42.421875 94.835938 C 43.84375 92.460938 45.324219 90.125 46.859375 87.824219 C 48.398438 85.523438 49.992188 83.257812 51.640625 81.035156 C 53.289062 78.8125 54.992188 76.632812 56.746094 74.492188 C 58.503906 72.351562 60.3125 70.257812 62.171875 68.207031 C 64.027344 66.15625 65.9375 64.152344 67.894531 62.195312 C 69.851562 60.238281 71.855469 58.328125 73.90625 56.472656 C 75.957031 54.613281 78.050781 52.804688 80.191406 51.046875 C 82.332031 49.292969 84.511719 47.589844 86.734375 45.941406 C 88.957031 44.292969 91.222656 42.699219 93.523438 41.160156 C 95.824219 39.625 98.160156 38.144531 100.535156 36.722656 C 102.910156 35.296875 105.316406 33.933594 107.757812 32.628906 C 110.199219 31.324219 112.671875 30.082031 115.171875 28.898438 C 117.675781 27.714844 120.203125 26.59375 122.761719 25.53125 C 125.320312 24.472656 127.902344 23.476562 130.507812 22.546875 C 133.113281 21.613281 135.738281 20.746094 138.390625 19.941406 C 141.039062 19.136719 143.703125 18.398438 146.390625 17.726562 C 149.074219 17.054688 151.773438 16.449219 154.488281 15.910156 C 157.203125 15.367188 159.929688 14.894531 162.667969 14.488281 C 165.40625 14.082031 168.152344 13.746094 170.90625 13.472656 C 173.660156 13.203125 176.421875 13 179.183594 12.863281 C 181.949219 12.726562 184.714844 12.660156 187.484375 12.660156 C 190.25 12.660156 193.015625 12.726562 195.78125 12.863281 C 198.546875 13 201.304688 13.203125 204.058594 13.472656 C 206.816406 13.746094 209.5625 14.082031 212.300781 14.488281 C 215.035156 14.894531 217.761719 15.367188 220.476562 15.910156 C 223.191406 16.449219 225.890625 17.054688 228.578125 17.726562 C 231.261719 18.398438 233.929688 19.136719 236.578125 19.941406 C 239.226562 20.746094 241.855469 21.613281 244.460938 22.546875 C 247.066406 23.476562 249.648438 24.472656 252.203125 25.53125 C 254.761719 26.59375 257.292969 27.714844 259.792969 28.898438 C 262.296875 30.082031 264.765625 31.324219 267.207031 32.628906 C 269.648438 33.933594 272.058594 35.296875 274.429688 36.722656 C 276.804688 38.144531 279.144531 39.625 281.445312 41.160156 C 283.746094 42.699219 286.007812 44.292969 288.230469 45.941406 C 290.453125 47.589844 292.636719 49.292969 294.773438 51.046875 C 296.914062 52.804688 299.011719 54.613281 301.0625 56.472656 C 303.113281 58.328125 305.117188 60.238281 307.074219 62.195312 C 309.03125 64.152344 310.9375 66.15625 312.796875 68.207031 C 314.65625 70.257812 316.460938 72.351562 318.21875 74.492188 C 319.976562 76.632812 321.675781 78.8125 323.324219 81.035156 C 324.972656 83.257812 326.566406 85.523438 328.105469 87.824219 C 329.644531 90.125 331.125 92.460938 332.546875 94.835938 C 333.96875 97.210938 335.332031 99.617188 336.636719 102.058594 C 337.941406 104.5 339.1875 106.972656 340.371094 109.472656 C 341.554688 111.976562 342.675781 114.503906 343.734375 117.0625 C 344.792969 119.621094 345.789062 122.203125 346.722656 124.808594 C 347.65625 127.414062 348.523438 130.042969 349.324219 132.691406 C 350.128906 135.339844 350.867188 138.003906 351.539062 140.691406 C 352.210938 143.375 352.820312 146.074219 353.359375 148.789062 C 353.898438 151.503906 354.371094 154.230469 354.777344 156.96875 C 355.183594 159.707031 355.523438 162.453125 355.792969 165.207031 C 356.066406 167.960938 356.269531 170.722656 356.40625 173.484375 C 356.539062 176.25 356.609375 179.015625 356.609375 181.785156 Z M 356.609375 181.785156 " fill-opacity="1" fill-rule="nonzero"/></g><g clip-path="url(#c05882a2a7)"><g clip-path="url(#18afb21214)"><path fill="#ffffff" d="M 80.265625 95.773438 L 294.734375 95.773438 L 294.734375 303.539062 L 80.265625 303.539062 Z M 80.265625 95.773438 " fill-opacity="1" fill-rule="nonzero"/></g></g></svg>