<svg xmlns="http://www.w3.org/2000/svg" xmlns:xlink="http://www.w3.org/1999/xlink" width="500" zoomAndPan="magnify" viewBox="0 0 375 374.999991" height="500" preserveAspectRatio="xMidYMid meet" version="1.0"><defs><clipPath id="2300ee95f8"><path d="M 40.789062 27.378906 L 334.039062 27.378906 L 334.039062 320.628906 L 40.789062 320.628906 Z M 40.789062 27.378906 " clip-rule="nonzero"/></clipPath><clipPath id="231382d3fd"><path d="M 125.875 190 L 248.875 190 L 248.875 282.089844 L 125.875 282.089844 Z M 125.875 190 " clip-rule="nonzero"/></clipPath><clipPath id="aef2afc130"><path d="M 116.414062 73.554688 L 258.914062 73.554688 L 258.914062 198.054688 L 116.414062 198.054688 Z M 116.414062 73.554688 " clip-rule="nonzero"/></clipPath></defs><g clip-path="url(#2300ee95f8)"><path fill="#ffffff" d="M 334.039062 174.003906 C 334.039062 176.402344 333.980469 178.800781 333.863281 181.199219 C 333.742188 183.59375 333.566406 185.988281 333.332031 188.375 C 333.097656 190.761719 332.804688 193.144531 332.453125 195.519531 C 332.097656 197.890625 331.6875 200.253906 331.222656 202.609375 C 330.753906 204.960938 330.226562 207.304688 329.644531 209.628906 C 329.0625 211.957031 328.421875 214.269531 327.722656 216.566406 C 327.027344 218.863281 326.277344 221.140625 325.46875 223.398438 C 324.660156 225.660156 323.796875 227.898438 322.878906 230.113281 C 321.957031 232.332031 320.988281 234.523438 319.960938 236.695312 C 318.933594 238.863281 317.855469 241.007812 316.726562 243.121094 C 315.59375 245.238281 314.410156 247.324219 313.175781 249.382812 C 311.945312 251.441406 310.660156 253.46875 309.328125 255.464844 C 307.996094 257.460938 306.613281 259.421875 305.183594 261.347656 C 303.753906 263.277344 302.277344 265.167969 300.757812 267.023438 C 299.234375 268.875 297.667969 270.691406 296.054688 272.472656 C 294.445312 274.25 292.789062 275.988281 291.09375 277.683594 C 289.394531 279.378906 287.660156 281.035156 285.878906 282.644531 C 284.101562 284.257812 282.285156 285.824219 280.429688 287.347656 C 278.578125 288.867188 276.683594 290.34375 274.757812 291.773438 C 272.832031 293.203125 270.867188 294.585938 268.875 295.917969 C 266.878906 297.25 264.851562 298.535156 262.792969 299.769531 C 260.734375 301 258.648438 302.183594 256.53125 303.316406 C 254.414062 304.445312 252.273438 305.523438 250.101562 306.550781 C 247.933594 307.578125 245.742188 308.550781 243.523438 309.46875 C 241.308594 310.386719 239.070312 311.25 236.808594 312.058594 C 234.550781 312.867188 232.273438 313.617188 229.976562 314.316406 C 227.679688 315.011719 225.367188 315.652344 223.039062 316.234375 C 220.710938 316.816406 218.371094 317.34375 216.019531 317.8125 C 213.664062 318.28125 211.300781 318.691406 208.925781 319.042969 C 206.554688 319.394531 204.171875 319.6875 201.785156 319.921875 C 199.398438 320.15625 197.003906 320.335938 194.609375 320.453125 C 192.210938 320.570312 189.8125 320.628906 187.414062 320.628906 C 185.011719 320.628906 182.617188 320.570312 180.21875 320.453125 C 177.820312 320.335938 175.429688 320.15625 173.042969 319.921875 C 170.652344 319.6875 168.273438 319.394531 165.898438 319.042969 C 163.523438 318.691406 161.160156 318.28125 158.808594 317.8125 C 156.453125 317.34375 154.113281 316.816406 151.785156 316.234375 C 149.457031 315.652344 147.148438 315.011719 144.851562 314.316406 C 142.554688 313.617188 140.277344 312.867188 138.015625 312.058594 C 135.757812 311.25 133.519531 310.386719 131.300781 309.46875 C 129.085938 308.550781 126.890625 307.578125 124.722656 306.550781 C 122.554688 305.523438 120.410156 304.445312 118.292969 303.316406 C 116.179688 302.183594 114.089844 301 112.03125 299.769531 C 109.976562 298.535156 107.949219 297.25 105.953125 295.917969 C 103.957031 294.585938 101.996094 293.203125 100.070312 291.773438 C 98.140625 290.34375 96.25 288.867188 94.394531 287.347656 C 92.539062 285.824219 90.722656 284.257812 88.945312 282.644531 C 87.167969 281.035156 85.429688 279.378906 83.734375 277.683594 C 82.035156 275.988281 80.382812 274.25 78.769531 272.472656 C 77.160156 270.691406 75.59375 268.875 74.070312 267.023438 C 72.546875 265.167969 71.074219 263.277344 69.644531 261.347656 C 68.214844 259.421875 66.832031 257.460938 65.5 255.464844 C 64.164062 253.46875 62.882812 251.441406 61.648438 249.382812 C 60.414062 247.324219 59.234375 245.238281 58.101562 243.121094 C 56.96875 241.007812 55.890625 238.863281 54.867188 236.695312 C 53.839844 234.523438 52.867188 232.332031 51.949219 230.113281 C 51.03125 227.898438 50.167969 225.660156 49.359375 223.398438 C 48.550781 221.140625 47.796875 218.863281 47.101562 216.566406 C 46.40625 214.269531 45.765625 211.957031 45.183594 209.628906 C 44.597656 207.304688 44.074219 204.960938 43.605469 202.609375 C 43.136719 200.253906 42.726562 197.890625 42.375 195.519531 C 42.023438 193.144531 41.730469 190.761719 41.496094 188.375 C 41.257812 185.988281 41.082031 183.59375 40.964844 181.199219 C 40.847656 178.800781 40.789062 176.402344 40.789062 174.003906 C 40.789062 171.605469 40.847656 169.207031 40.964844 166.808594 C 41.082031 164.414062 41.257812 162.019531 41.496094 159.632812 C 41.730469 157.242188 42.023438 154.863281 42.375 152.488281 C 42.726562 150.117188 43.136719 147.753906 43.605469 145.398438 C 44.074219 143.046875 44.597656 140.703125 45.183594 138.375 C 45.765625 136.050781 46.40625 133.738281 47.101562 131.441406 C 47.796875 129.144531 48.550781 126.867188 49.359375 124.605469 C 50.167969 122.347656 51.03125 120.109375 51.949219 117.894531 C 52.867188 115.675781 53.839844 113.484375 54.867188 111.3125 C 55.890625 109.144531 56.96875 107 58.101562 104.886719 C 59.234375 102.769531 60.414062 100.683594 61.648438 98.625 C 62.882812 96.566406 64.164062 94.539062 65.5 92.542969 C 66.832031 90.546875 68.214844 88.585938 69.644531 86.660156 C 71.074219 84.730469 72.546875 82.839844 74.070312 80.984375 C 75.59375 79.132812 77.160156 77.3125 78.769531 75.535156 C 80.382812 73.757812 82.035156 72.019531 83.734375 70.324219 C 85.429688 68.628906 87.167969 66.972656 88.945312 65.363281 C 90.722656 63.75 92.539062 62.183594 94.394531 60.660156 C 96.25 59.140625 98.140625 57.664062 100.070312 56.234375 C 101.996094 54.804688 103.957031 53.421875 105.953125 52.089844 C 107.949219 50.757812 109.976562 49.472656 112.03125 48.238281 C 114.089844 47.003906 116.179688 45.824219 118.292969 44.691406 C 120.410156 43.5625 122.554688 42.480469 124.722656 41.457031 C 126.890625 40.429688 129.085938 39.457031 131.300781 38.539062 C 133.519531 37.621094 135.757812 36.757812 138.015625 35.949219 C 140.277344 35.140625 142.554688 34.390625 144.851562 33.691406 C 147.148438 32.996094 149.457031 32.355469 151.785156 31.773438 C 154.113281 31.191406 156.453125 30.664062 158.808594 30.195312 C 161.160156 29.726562 163.523438 29.316406 165.898438 28.964844 C 168.273438 28.613281 170.652344 28.320312 173.042969 28.085938 C 175.429688 27.847656 177.820312 27.671875 180.21875 27.554688 C 182.617188 27.4375 185.011719 27.378906 187.414062 27.378906 C 189.8125 27.378906 192.210938 27.4375 194.609375 27.554688 C 197.003906 27.671875 199.398438 27.847656 201.785156 28.085938 C 204.171875 28.320312 206.554688 28.613281 208.925781 28.964844 C 211.300781 29.316406 213.664062 29.726562 216.019531 30.195312 C 218.371094 30.664062 220.710938 31.191406 223.039062 31.773438 C 225.367188 32.355469 227.679688 32.996094 229.976562 33.691406 C 232.273438 34.390625 234.550781 35.140625 236.808594 35.949219 C 239.070312 36.757812 241.308594 37.621094 243.523438 38.539062 C 245.742188 39.457031 247.933594 40.429688 250.105469 41.457031 C 252.273438 42.480469 254.414062 43.5625 256.53125 44.691406 C 258.648438 45.824219 260.734375 47.003906 262.792969 48.238281 C 264.851562 49.472656 266.878906 50.757812 268.875 52.089844 C 270.867188 53.421875 272.832031 54.804688 274.757812 56.234375 C 276.683594 57.664062 278.578125 59.140625 280.429688 60.660156 C 282.285156 62.183594 284.101562 63.75 285.878906 65.363281 C 287.660156 66.972656 289.394531 68.628906 291.09375 70.324219 C 292.789062 72.019531 294.445312 73.757812 296.054688 75.535156 C 297.667969 77.3125 299.234375 79.132812 300.757812 80.984375 C 302.277344 82.839844 303.753906 84.730469 305.183594 86.660156 C 306.613281 88.585938 307.996094 90.546875 309.328125 92.542969 C 310.660156 94.539062 311.945312 96.566406 313.175781 98.625 C 314.410156 100.683594 315.59375 102.769531 316.726562 104.886719 C 317.855469 107 318.933594 109.144531 319.960938 111.3125 C 320.988281 113.484375 321.957031 115.675781 322.878906 117.894531 C 323.796875 120.109375 324.660156 122.347656 325.46875 124.605469 C 326.277344 126.867188 327.027344 129.144531 327.726562 131.441406 C 328.421875 133.738281 329.0625 136.050781 329.644531 138.375 C 330.226562 140.703125 330.753906 143.046875 331.222656 145.398438 C 331.6875 147.753906 332.097656 150.117188 332.453125 152.488281 C 332.804688 154.863281 333.097656 157.242188 333.332031 159.632812 C 333.566406 162.019531 333.742188 164.414062 333.863281 166.808594 C 333.980469 169.207031 334.039062 171.605469 334.039062 174.003906 Z M 334.039062 174.003906 " fill-opacity="1" fill-rule="nonzero"/></g><g clip-path="url(#231382d3fd)"><path fill="#8a2387" d="M 245.929688 225.625 C 245.914062 225.367188 245.851562 225.113281 245.757812 224.875 C 243.785156 214.355469 234.78125 207.839844 223.191406 207.839844 C 219.046875 207.839844 213.128906 206.554688 208.511719 214.777344 L 187.480469 214.777344 C 187.789062 210.667969 188.839844 208.769531 190.03125 207.0625 C 191.78125 204.554688 193.769531 201.460938 193.769531 193.136719 C 193.769531 191.714844 192.628906 190.441406 191.210938 190.441406 C 189.796875 190.441406 188.652344 191.527344 188.652344 192.945312 C 188.652344 199.644531 187.351562 201.984375 185.835938 204.148438 C 184.367188 206.253906 182.71875 206.558594 182.339844 214.777344 L 166.234375 214.777344 C 161.613281 206.558594 155.699219 207.839844 151.554688 207.839844 C 140.015625 207.839844 130.695312 215.289062 128.867188 226.539062 C 127.992188 237.933594 125.96875 264.402344 125.96875 265.261719 C 125.96875 274.257812 133.140625 282.082031 141.320312 282.082031 C 148.632812 282.082031 153.394531 279.34375 155.476562 274.03125 C 155.503906 273.980469 155.53125 273.914062 155.550781 273.863281 L 160.835938 261.449219 C 162.984375 263.085938 165.914062 265.09375 169.460938 265.09375 C 175.769531 265.09375 181.628906 259.988281 183.875 255.878906 L 190.898438 255.878906 C 193.101562 259.988281 198.832031 264.359375 205.296875 264.359375 C 208.75 264.359375 211.578125 263.4375 213.867188 262.082031 L 219.226562 274.003906 C 219.246094 274.050781 219.269531 274.023438 219.292969 274.074219 C 221.371094 279.382812 226.132812 282.042969 233.445312 282.042969 C 241.757812 282.042969 248.792969 274.625 248.792969 265.875 C 248.777344 265.023438 246.789062 237.441406 245.929688 225.625 Z M 156.671875 239.433594 L 150.53125 239.433594 L 150.53125 244.570312 C 150.53125 245.996094 149.898438 247.140625 148.484375 247.140625 C 147.066406 247.140625 146.4375 245.996094 146.4375 244.570312 L 146.4375 239.433594 L 141.320312 239.433594 C 139.902344 239.433594 138.761719 238.804688 138.761719 237.378906 C 138.761719 235.957031 139.902344 235.324219 141.320312 235.324219 L 146.4375 235.324219 L 146.4375 229.15625 C 146.4375 227.734375 147.066406 226.589844 148.484375 226.589844 C 149.898438 226.589844 150.53125 227.738281 150.53125 229.15625 L 150.53125 235.324219 L 156.671875 235.324219 C 158.085938 235.324219 159.230469 235.957031 159.230469 237.378906 C 159.230469 238.804688 158.085938 239.433594 156.671875 239.433594 Z M 182.253906 239.433594 L 177.136719 239.433594 C 175.722656 239.433594 174.578125 238.804688 174.578125 237.378906 C 174.578125 235.957031 175.722656 235.324219 177.136719 235.324219 L 182.253906 235.324219 C 183.671875 235.324219 184.8125 235.957031 184.8125 237.378906 C 184.8125 238.804688 183.671875 239.433594 182.253906 239.433594 Z M 197.605469 239.433594 L 192.488281 239.433594 C 191.074219 239.433594 189.929688 238.804688 189.929688 237.378906 C 189.929688 235.957031 191.074219 235.324219 192.488281 235.324219 L 197.605469 235.324219 C 199.023438 235.324219 200.164062 235.957031 200.164062 237.378906 C 200.164062 238.804688 199.023438 239.433594 197.605469 239.433594 Z M 212.957031 249.707031 C 210.136719 249.707031 207.839844 247.40625 207.839844 244.570312 C 207.839844 241.742188 210.136719 239.433594 212.957031 239.433594 C 215.78125 239.433594 218.074219 241.742188 218.074219 244.570312 C 218.074219 247.410156 215.78125 249.707031 212.957031 249.707031 Z M 212.957031 234.296875 C 210.136719 234.296875 207.839844 231.996094 207.839844 229.15625 C 207.839844 226.324219 210.136719 224.019531 212.957031 224.019531 C 215.78125 224.019531 218.074219 226.324219 218.074219 229.15625 C 218.074219 231.996094 215.78125 234.296875 212.957031 234.296875 Z M 228.308594 249.707031 C 225.488281 249.707031 223.191406 247.40625 223.191406 244.570312 C 223.191406 241.742188 225.488281 239.433594 228.308594 239.433594 C 231.132812 239.433594 233.425781 241.742188 233.425781 244.570312 C 233.425781 247.410156 231.132812 249.707031 228.308594 249.707031 Z M 228.308594 234.296875 C 225.488281 234.296875 223.191406 231.996094 223.191406 229.15625 C 223.191406 226.324219 225.488281 224.019531 228.308594 224.019531 C 231.132812 224.019531 233.425781 226.324219 233.425781 229.15625 C 233.425781 231.996094 231.132812 234.296875 228.308594 234.296875 Z M 228.308594 234.296875 " fill-opacity="1" fill-rule="nonzero"/></g><g clip-path="url(#aef2afc130)"><path fill="#8a2387" d="M 122.066406 93.433594 C 110.511719 112.441406 118.652344 130.9375 128.878906 140.757812 L 188.691406 198.050781 L 247.238281 140.960938 C 256.753906 130.398438 260.398438 119.195312 258.375 106.722656 C 255.578125 89.464844 241.332031 76.078125 223.738281 74.164062 C 212.949219 73.003906 202.523438 76.054688 194.390625 82.804688 C 192.199219 84.621094 190.242188 86.652344 188.535156 88.859375 C 186.511719 86.34375 184.140625 84.046875 181.457031 82.007812 C 172.097656 74.910156 160.191406 72.089844 148.75 74.285156 C 137.917969 76.375 128.191406 83.351562 122.066406 93.433594 " fill-opacity="1" fill-rule="nonzero"/></g></svg>